<mxfile host="Electron" modified="2023-12-26T15:28:35.041Z" agent="Mozilla/5.0 (Macintosh; Intel Mac OS X 10_15_7) AppleWebKit/537.36 (KHTML, like Gecko) draw.io/21.1.2 Chrome/106.0.5249.199 Electron/21.4.3 Safari/537.36" etag="ctUgJVb8J74wNdZ5z4r1" version="21.1.2" type="device">
  <diagram id="yYvmMlfYHZzWR817Fvqw" name="Architecture General">
    <mxGraphModel dx="5093" dy="3063" grid="1" gridSize="10" guides="1" tooltips="1" connect="1" arrows="1" fold="1" page="1" pageScale="1" pageWidth="827" pageHeight="1169" math="0" shadow="0">
      <root>
        <mxCell id="0" />
        <mxCell id="1" parent="0" />
        <mxCell id="N2Np4KZCcYemo4RbHDCE-34" value="" style="rounded=0;whiteSpace=wrap;html=1;" parent="1" vertex="1">
          <mxGeometry x="-1880" y="-0.73" width="550" height="920" as="geometry" />
        </mxCell>
        <mxCell id="N2Np4KZCcYemo4RbHDCE-33" value="" style="rounded=0;whiteSpace=wrap;html=1;" parent="1" vertex="1">
          <mxGeometry x="-1100" y="10" width="1880" height="910" as="geometry" />
        </mxCell>
        <mxCell id="N2Y3VADcE822QykyAe20-64" value="" style="html=1;outlineConnect=0;whiteSpace=wrap;fillColor=#FFFFFF;shape=mxgraph.archimate3.application;archiType=rounded;strokeColor=#828282;strokeWidth=2;" parent="1" vertex="1">
          <mxGeometry x="-1073" y="60" width="350" height="670" as="geometry" />
        </mxCell>
        <mxCell id="N2Y3VADcE822QykyAe20-63" value="" style="html=1;outlineConnect=0;whiteSpace=wrap;fillColor=#FFF;shape=mxgraph.archimate.rounded=1;strokeColor=#828282;strokeWidth=2;rounded=1;arcSize=16;" parent="1" vertex="1">
          <mxGeometry x="-570" y="60" width="1070" height="670" as="geometry" />
        </mxCell>
        <mxCell id="N2Y3VADcE822QykyAe20-61" value="" style="rounded=0;whiteSpace=wrap;html=1;fillColor=#EDEDED;fontColor=#333333;strokeColor=#828282;" parent="1" vertex="1">
          <mxGeometry x="-1040" y="216.5" width="290" height="393.5" as="geometry" />
        </mxCell>
        <mxCell id="N2Y3VADcE822QykyAe20-3" value="&amp;nbsp; &amp;nbsp;CLUSTER SWARM&amp;nbsp;BCEAO AIP INTERN" style="rounded=0;whiteSpace=wrap;html=1;fillColor=#dae8fc;strokeColor=#6c8ebf;fontStyle=1;verticalAlign=middle;fontSize=14;" parent="1" vertex="1">
          <mxGeometry x="-480" y="110" width="443" height="90" as="geometry" />
        </mxCell>
        <mxCell id="N2Y3VADcE822QykyAe20-4" value="MFS PLATFORM" style="rounded=0;whiteSpace=wrap;html=1;fillColor=#dae8fc;strokeColor=#6c8ebf;fontStyle=1;verticalAlign=middle;fontSize=14;" parent="1" vertex="1">
          <mxGeometry x="229" y="110" width="201" height="85" as="geometry" />
        </mxCell>
        <mxCell id="N2Y3VADcE822QykyAe20-12" value="ACCESS GATEWAY" style="rounded=0;whiteSpace=wrap;html=1;shadow=0;strokeColor=#6c8ebf;fillColor=#dae8fc;rotation=0;fontStyle=1;verticalAlign=middle;fontSize=14;" parent="1" vertex="1">
          <mxGeometry x="10" y="110" width="150" height="90" as="geometry" />
        </mxCell>
        <mxCell id="N2Y3VADcE822QykyAe20-15" value="" style="rounded=1;whiteSpace=wrap;html=1;shadow=0;strokeColor=#828282;fillColor=#EDEDED;strokeWidth=2;" parent="1" vertex="1">
          <mxGeometry x="-476" y="240" width="440" height="410" as="geometry" />
        </mxCell>
        <mxCell id="N2Y3VADcE822QykyAe20-19" value="&lt;font style=&quot;font-size: 12px&quot;&gt;NODE 2&lt;br&gt;&lt;/font&gt;" style="rounded=1;whiteSpace=wrap;html=1;shadow=1;strokeColor=#E3E3E3;fillColor=#FFFFFF;fontStyle=1" parent="1" vertex="1">
          <mxGeometry x="-361" y="460" width="217.5" height="61" as="geometry" />
        </mxCell>
        <mxCell id="N2Y3VADcE822QykyAe20-20" value="" style="outlineConnect=0;fontColor=#232F3E;gradientColor=#945DF2;gradientDirection=north;fillColor=#5A30B5;strokeColor=#ffffff;dashed=0;verticalLabelPosition=bottom;verticalAlign=top;align=center;html=1;fontSize=12;fontStyle=0;aspect=fixed;shape=mxgraph.aws4.resourceIcon;resIcon=mxgraph.aws4.api_gateway;shadow=1;sketch=0;" parent="1" vertex="1">
          <mxGeometry x="55.650000000000006" y="200" width="49.25" height="49.25" as="geometry" />
        </mxCell>
        <mxCell id="N2Y3VADcE822QykyAe20-25" value="" style="rounded=0;whiteSpace=wrap;html=1;shadow=0;strokeColor=#6c8ebf;fillColor=#EDEDED;rotation=0;" parent="1" vertex="1">
          <mxGeometry x="229" y="306" width="200" height="330" as="geometry" />
        </mxCell>
        <mxCell id="N2Y3VADcE822QykyAe20-26" value="&amp;nbsp;&amp;nbsp;&amp;nbsp;&amp;nbsp;&amp;nbsp;&amp;nbsp;&amp;nbsp;&amp;nbsp;&amp;nbsp;&amp;nbsp;&amp;nbsp;&amp;nbsp; SERVICES MAIL/SMS" style="rounded=0;whiteSpace=wrap;html=1;shadow=1;strokeColor=#E3E3E3;fillColor=#FFFFFF;align=center;fontStyle=1" parent="1" vertex="1">
          <mxGeometry x="246" y="555" width="177.5" height="60" as="geometry" />
        </mxCell>
        <mxCell id="N2Y3VADcE822QykyAe20-27" value="" style="html=1;dashed=0;whitespace=wrap;fillColor=#2875E2;strokeColor=#ffffff;points=[[0.005,0.63,0],[0.1,0.2,0],[0.9,0.2,0],[0.5,0,0],[0.995,0.63,0],[0.72,0.99,0],[0.5,1,0],[0.28,0.99,0]];shape=mxgraph.kubernetes.icon;prIcon=api;shadow=1;sketch=0;" parent="1" vertex="1">
          <mxGeometry x="252.75" y="568" width="34" height="29.83" as="geometry" />
        </mxCell>
        <mxCell id="N2Y3VADcE822QykyAe20-28" value="MOBIQUITY&lt;div&gt;&lt;/div&gt;" style="rounded=0;whiteSpace=wrap;html=1;shadow=1;strokeColor=#E3E3E3;fillColor=#FFFFFF;align=center;fontStyle=1" parent="1" vertex="1">
          <mxGeometry x="240.25" y="348.06" width="177.5" height="60" as="geometry" />
        </mxCell>
        <mxCell id="N2Y3VADcE822QykyAe20-29" value="" style="html=1;dashed=0;whitespace=wrap;fillColor=#2875E2;strokeColor=#ffffff;points=[[0.005,0.63,0],[0.1,0.2,0],[0.9,0.2,0],[0.5,0,0],[0.995,0.63,0],[0.72,0.99,0],[0.5,1,0],[0.28,0.99,0]];shape=mxgraph.kubernetes.icon;prIcon=api;shadow=1;sketch=0;" parent="1" vertex="1">
          <mxGeometry x="246" y="358" width="38.75" height="34" as="geometry" />
        </mxCell>
        <mxCell id="N2Y3VADcE822QykyAe20-30" value="NODE 1" style="rounded=1;whiteSpace=wrap;html=1;shadow=1;strokeColor=#E3E3E3;fillColor=#FFFFFF;fontStyle=1" parent="1" vertex="1">
          <mxGeometry x="-361" y="340" width="217.5" height="64.06" as="geometry" />
        </mxCell>
        <mxCell id="N2Y3VADcE822QykyAe20-35" value="&lt;div style=&quot;font-size: 31px;&quot;&gt;FUNCTIONAL ARCHITECTURE&lt;br&gt;&lt;/div&gt;" style="rounded=0;whiteSpace=wrap;html=1;shadow=1;sketch=0;strokeColor=#ADADAD;fillColor=default;fontStyle=1;strokeWidth=1;fontSize=31;" parent="1" vertex="1">
          <mxGeometry x="-1880" y="1010" width="2440" height="100" as="geometry" />
        </mxCell>
        <mxCell id="N2Y3VADcE822QykyAe20-60" value="&amp;nbsp; &amp;nbsp;CLUSTER SWARM&amp;nbsp;&lt;span style=&quot;border-color: var(--border-color); font-size: 14px;&quot;&gt;BCEAO AIP EXTERN&lt;/span&gt;" style="rounded=0;whiteSpace=wrap;html=1;fillColor=#dae8fc;strokeColor=#6c8ebf;fontStyle=1;verticalAlign=middle;fontSize=14;" parent="1" vertex="1">
          <mxGeometry x="-1040" y="110" width="290" height="80" as="geometry" />
        </mxCell>
        <mxCell id="N2Y3VADcE822QykyAe20-7" value="&amp;nbsp; &amp;nbsp; &amp;nbsp; &amp;nbsp; &amp;nbsp; &amp;nbsp;NODE 2" style="rounded=0;whiteSpace=wrap;html=1;strokeColor=#E3E3E3;shadow=1;fontStyle=1" parent="1" vertex="1">
          <mxGeometry x="-1008" y="460" width="220" height="60" as="geometry" />
        </mxCell>
        <mxCell id="N2Y3VADcE822QykyAe20-69" value="DMZ" style="rounded=0;whiteSpace=wrap;html=1;fillColor=#EDEDED;strokeColor=#828282;fontStyle=1;fontSize=16;" parent="1" vertex="1">
          <mxGeometry x="-1073" y="798" width="353" height="92" as="geometry" />
        </mxCell>
        <mxCell id="N2Y3VADcE822QykyAe20-70" value="INTERNAL NETWORK" style="rounded=0;whiteSpace=wrap;html=1;fillColor=#EDEDED;strokeColor=#828282;fontStyle=1;strokeWidth=2;fontSize=16;" parent="1" vertex="1">
          <mxGeometry x="-570" y="798" width="1050" height="92" as="geometry" />
        </mxCell>
        <mxCell id="ECYOqZgO95T1QQij9jbq-1" value="TALEND ESB" style="rounded=0;whiteSpace=wrap;html=1;shadow=0;strokeColor=#6c8ebf;fillColor=#dae8fc;rotation=-90;fontStyle=1" parent="1" vertex="1">
          <mxGeometry x="270" y="468.26000000000005" width="99.5" height="43.47" as="geometry" />
        </mxCell>
        <mxCell id="N2Np4KZCcYemo4RbHDCE-10" value="&amp;nbsp; &amp;nbsp; &amp;nbsp; &amp;nbsp; &amp;nbsp; &amp;nbsp;NODE 1" style="rounded=0;whiteSpace=wrap;html=1;strokeColor=#E3E3E3;shadow=1;fontStyle=1" parent="1" vertex="1">
          <mxGeometry x="-1008" y="333.06" width="220" height="60" as="geometry" />
        </mxCell>
        <mxCell id="N2Np4KZCcYemo4RbHDCE-12" value="" style="image;aspect=fixed;perimeter=ellipsePerimeter;html=1;align=center;shadow=0;dashed=0;spacingTop=3;image=img/lib/active_directory/cluster_server.svg;" parent="1" vertex="1">
          <mxGeometry x="-453" y="130" width="60" height="60" as="geometry" />
        </mxCell>
        <mxCell id="N2Np4KZCcYemo4RbHDCE-14" value="HTTPS" style="endArrow=classic;startArrow=classic;html=1;rounded=0;fontStyle=3;fontSize=12;entryX=0;entryY=0.5;entryDx=0;entryDy=0;" parent="1" source="N2Np4KZCcYemo4RbHDCE-48" target="N2Y3VADcE822QykyAe20-63" edge="1">
          <mxGeometry x="0.0311" y="3" width="50" height="50" relative="1" as="geometry">
            <mxPoint x="-690" y="420" as="sourcePoint" />
            <mxPoint x="-470" y="395" as="targetPoint" />
            <Array as="points">
              <mxPoint x="-610" y="395" />
            </Array>
            <mxPoint as="offset" />
          </mxGeometry>
        </mxCell>
        <mxCell id="N2Np4KZCcYemo4RbHDCE-20" value="" style="image;sketch=0;aspect=fixed;html=1;points=[];align=center;fontSize=12;image=img/lib/mscae/Docker.svg;" parent="1" vertex="1">
          <mxGeometry x="-110" y="140.81" width="60" height="49.19" as="geometry" />
        </mxCell>
        <mxCell id="N2Np4KZCcYemo4RbHDCE-21" value="HTTPS" style="endArrow=classic;startArrow=classic;html=1;rounded=0;fontStyle=3;exitX=0.999;exitY=0.611;exitDx=0;exitDy=0;exitPerimeter=0;" parent="1" source="N2Y3VADcE822QykyAe20-15" target="N2Y3VADcE822QykyAe20-20" edge="1">
          <mxGeometry width="50" height="50" relative="1" as="geometry">
            <mxPoint x="-37" y="600" as="sourcePoint" />
            <mxPoint x="113" y="600" as="targetPoint" />
            <Array as="points">
              <mxPoint x="30" y="491" />
              <mxPoint x="30" y="230" />
            </Array>
          </mxGeometry>
        </mxCell>
        <mxCell id="N2Np4KZCcYemo4RbHDCE-23" value="HTTPS" style="endArrow=classic;startArrow=classic;html=1;rounded=0;fontStyle=3;exitX=0.5;exitY=0;exitDx=0;exitDy=0;" parent="1" source="ECYOqZgO95T1QQij9jbq-1" edge="1">
          <mxGeometry width="50" height="50" relative="1" as="geometry">
            <mxPoint x="200" y="490" as="sourcePoint" />
            <mxPoint x="105.90000000000009" y="227.28682755153363" as="targetPoint" />
            <Array as="points">
              <mxPoint x="131" y="490" />
              <mxPoint x="131" y="230" />
            </Array>
          </mxGeometry>
        </mxCell>
        <mxCell id="N2Np4KZCcYemo4RbHDCE-25" value="" style="sketch=0;html=1;dashed=0;whitespace=wrap;fillColor=#2875E2;strokeColor=#ffffff;points=[[0.005,0.63,0],[0.1,0.2,0],[0.9,0.2,0],[0.5,0,0],[0.995,0.63,0],[0.72,0.99,0],[0.5,1,0],[0.28,0.99,0]];verticalLabelPosition=bottom;align=center;verticalAlign=top;shape=mxgraph.kubernetes.icon;prIcon=node" parent="1" vertex="1">
          <mxGeometry x="-350" y="466" width="50" height="48" as="geometry" />
        </mxCell>
        <mxCell id="N2Np4KZCcYemo4RbHDCE-26" value="" style="sketch=0;html=1;dashed=0;whitespace=wrap;fillColor=#2875E2;strokeColor=#ffffff;points=[[0.005,0.63,0],[0.1,0.2,0],[0.9,0.2,0],[0.5,0,0],[0.995,0.63,0],[0.72,0.99,0],[0.5,1,0],[0.28,0.99,0]];verticalLabelPosition=bottom;align=center;verticalAlign=top;shape=mxgraph.kubernetes.icon;prIcon=node" parent="1" vertex="1">
          <mxGeometry x="-350" y="348.03" width="50" height="48" as="geometry" />
        </mxCell>
        <mxCell id="N2Np4KZCcYemo4RbHDCE-27" value="" style="rounded=1;whiteSpace=wrap;html=1;shadow=0;strokeColor=#828282;fillColor=#fff;strokeWidth=2;" parent="1" vertex="1">
          <mxGeometry x="-1830" y="305.27" width="440" height="410" as="geometry" />
        </mxCell>
        <mxCell id="N2Np4KZCcYemo4RbHDCE-28" value="API SPI&lt;br&gt;" style="sketch=0;outlineConnect=0;fontColor=#232F3E;gradientColor=none;fillColor=#B0084D;strokeColor=none;dashed=0;verticalLabelPosition=bottom;verticalAlign=top;align=center;html=1;fontSize=14;fontStyle=1;aspect=fixed;pointerEvents=1;shape=mxgraph.aws4.endpoint;" parent="1" vertex="1">
          <mxGeometry x="-1649" y="385.79999999999995" width="78" height="78" as="geometry" />
        </mxCell>
        <mxCell id="N2Np4KZCcYemo4RbHDCE-30" value="API RAC&lt;br style=&quot;font-size: 14px;&quot;&gt;" style="sketch=0;points=[[0,0,0],[0.25,0,0],[0.5,0,0],[0.75,0,0],[1,0,0],[0,1,0],[0.25,1,0],[0.5,1,0],[0.75,1,0],[1,1,0],[0,0.25,0],[0,0.5,0],[0,0.75,0],[1,0.25,0],[1,0.5,0],[1,0.75,0]];outlineConnect=0;fontColor=#232F3E;gradientColor=#FF4F8B;gradientDirection=north;fillColor=#BC1356;strokeColor=#ffffff;dashed=0;verticalLabelPosition=bottom;verticalAlign=top;align=center;html=1;fontSize=14;fontStyle=1;aspect=fixed;shape=mxgraph.aws4.resourceIcon;resIcon=mxgraph.aws4.api_gateway;" parent="1" vertex="1">
          <mxGeometry x="-1649" y="531.27" width="78" height="78" as="geometry" />
        </mxCell>
        <mxCell id="N2Np4KZCcYemo4RbHDCE-32" value="&lt;font style=&quot;font-size: 32px;&quot;&gt;PLATFORM PI BCEAO&lt;/font&gt;" style="rounded=0;whiteSpace=wrap;html=1;fillColor=#dae8fc;strokeColor=#6c8ebf;fontStyle=1;verticalAlign=middle;fontSize=32;" parent="1" vertex="1">
          <mxGeometry x="-1880" y="-200" width="550" height="90" as="geometry" />
        </mxCell>
        <mxCell id="N2Np4KZCcYemo4RbHDCE-37" value="&lt;div style=&quot;font-size: 32px;&quot;&gt;&lt;span style=&quot;background-color: initial; font-size: 32px;&quot;&gt;FREE INFRASTRUCTURE&lt;/span&gt;&lt;/div&gt;" style="rounded=0;whiteSpace=wrap;html=1;fillColor=#dae8fc;strokeColor=#6c8ebf;fontStyle=1;verticalAlign=middle;fontSize=32;" parent="1" vertex="1">
          <mxGeometry x="-1100" y="-200" width="1660" height="90" as="geometry" />
        </mxCell>
        <mxCell id="N2Np4KZCcYemo4RbHDCE-41" value="HTTPS" style="endArrow=classic;startArrow=classic;html=1;rounded=0;fontStyle=3" parent="1" edge="1">
          <mxGeometry y="-20" width="50" height="50" relative="1" as="geometry">
            <mxPoint x="-1256" y="489" as="sourcePoint" />
            <mxPoint x="-1176" y="489" as="targetPoint" />
            <Array as="points" />
            <mxPoint as="offset" />
          </mxGeometry>
        </mxCell>
        <mxCell id="N2Np4KZCcYemo4RbHDCE-42" style="edgeStyle=orthogonalEdgeStyle;rounded=0;orthogonalLoop=1;jettySize=auto;html=1;" parent="1" source="N2Np4KZCcYemo4RbHDCE-44" edge="1">
          <mxGeometry relative="1" as="geometry">
            <mxPoint x="-1100" y="490" as="targetPoint" />
            <Array as="points">
              <mxPoint x="-1146" y="369" />
              <mxPoint x="-1146" y="490" />
              <mxPoint x="-1100" y="490" />
            </Array>
          </mxGeometry>
        </mxCell>
        <mxCell id="N2Np4KZCcYemo4RbHDCE-43" style="edgeStyle=orthogonalEdgeStyle;rounded=0;orthogonalLoop=1;jettySize=auto;html=1;" parent="1" source="N2Np4KZCcYemo4RbHDCE-44" edge="1">
          <mxGeometry relative="1" as="geometry">
            <mxPoint x="-1326" y="490" as="targetPoint" />
            <Array as="points">
              <mxPoint x="-1283" y="369" />
              <mxPoint x="-1283" y="490" />
              <mxPoint x="-1326" y="490" />
            </Array>
          </mxGeometry>
        </mxCell>
        <mxCell id="N2Np4KZCcYemo4RbHDCE-44" value="VPN Site-To-Site" style="sketch=0;points=[[0,0,0],[0.25,0,0],[0.5,0,0],[0.75,0,0],[1,0,0],[0,1,0],[0.25,1,0],[0.5,1,0],[0.75,1,0],[1,1,0],[0,0.25,0],[0,0.5,0],[0,0.75,0],[1,0.25,0],[1,0.5,0],[1,0.75,0]];outlineConnect=0;fontColor=#232F3E;gradientColor=#945DF2;gradientDirection=north;fillColor=#5A30B5;strokeColor=#ffffff;dashed=0;verticalLabelPosition=bottom;verticalAlign=top;align=center;html=1;fontSize=12;fontStyle=1;aspect=fixed;shape=mxgraph.aws4.resourceIcon;resIcon=mxgraph.aws4.site_to_site_vpn;" parent="1" vertex="1">
          <mxGeometry x="-1236" y="347.27000000000004" width="43.06" height="43.06" as="geometry" />
        </mxCell>
        <mxCell id="N2Np4KZCcYemo4RbHDCE-45" value="" style="sketch=0;html=1;dashed=0;whitespace=wrap;fillColor=#2875E2;strokeColor=#ffffff;points=[[0.005,0.63,0],[0.1,0.2,0],[0.9,0.2,0],[0.5,0,0],[0.995,0.63,0],[0.72,0.99,0],[0.5,1,0],[0.28,0.99,0]];verticalLabelPosition=bottom;align=center;verticalAlign=top;shape=mxgraph.kubernetes.icon;prIcon=node" parent="1" vertex="1">
          <mxGeometry x="-990" y="337.79999999999995" width="50" height="48" as="geometry" />
        </mxCell>
        <mxCell id="N2Np4KZCcYemo4RbHDCE-46" value="" style="sketch=0;html=1;dashed=0;whitespace=wrap;fillColor=#2875E2;strokeColor=#ffffff;points=[[0.005,0.63,0],[0.1,0.2,0],[0.9,0.2,0],[0.5,0,0],[0.995,0.63,0],[0.72,0.99,0],[0.5,1,0],[0.28,0.99,0]];verticalLabelPosition=bottom;align=center;verticalAlign=top;shape=mxgraph.kubernetes.icon;prIcon=node" parent="1" vertex="1">
          <mxGeometry x="-990" y="466" width="50" height="48" as="geometry" />
        </mxCell>
        <mxCell id="N2Np4KZCcYemo4RbHDCE-47" value="SPI API" style="rounded=0;whiteSpace=wrap;html=1;fillColor=#dae8fc;strokeColor=#6c8ebf;fontStyle=1;verticalAlign=middle;fontSize=17;" parent="1" vertex="1">
          <mxGeometry x="-1820" y="110" width="440" height="80" as="geometry" />
        </mxCell>
        <mxCell id="N2Np4KZCcYemo4RbHDCE-50" value="" style="endArrow=classic;startArrow=classic;html=1;rounded=0;fontStyle=3;exitX=1;exitY=0.5;exitDx=0;exitDy=0;exitPerimeter=0;" parent="1" source="N2Y3VADcE822QykyAe20-64" target="N2Np4KZCcYemo4RbHDCE-48" edge="1">
          <mxGeometry y="-20" width="50" height="50" relative="1" as="geometry">
            <mxPoint x="-723" y="395" as="sourcePoint" />
            <mxPoint x="-470" y="395" as="targetPoint" />
            <Array as="points">
              <mxPoint x="-690" y="395" />
            </Array>
            <mxPoint as="offset" />
          </mxGeometry>
        </mxCell>
        <mxCell id="N2Np4KZCcYemo4RbHDCE-52" value="HTTPS" style="edgeLabel;html=1;align=center;verticalAlign=middle;resizable=0;points=[];fontStyle=1;fontSize=13;" parent="N2Np4KZCcYemo4RbHDCE-50" vertex="1" connectable="0">
          <mxGeometry x="-0.0602" relative="1" as="geometry">
            <mxPoint x="4" y="-3" as="offset" />
          </mxGeometry>
        </mxCell>
        <mxCell id="N2Np4KZCcYemo4RbHDCE-48" value="Firewall" style="image;html=1;image=img/lib/clip_art/networking/Firewall_02_128x128.png;fontStyle=1;fontSize=15;" parent="1" vertex="1">
          <mxGeometry x="-680" y="70" width="80" height="80" as="geometry" />
        </mxCell>
        <mxCell id="N2Np4KZCcYemo4RbHDCE-53" value="DATABASE" style="image;html=1;image=img/lib/clip_art/computers/Database_128x128.png;fontStyle=1;fontSize=14;" parent="1" vertex="1">
          <mxGeometry x="104.9" y="660" width="80" height="80" as="geometry" />
        </mxCell>
        <mxCell id="N2Np4KZCcYemo4RbHDCE-54" value="TCP/IP" style="endArrow=classic;startArrow=classic;html=1;rounded=0;fontStyle=1;fontSize=12;entryX=0.25;entryY=0;entryDx=0;entryDy=0;" parent="1" target="ECYOqZgO95T1QQij9jbq-1" edge="1">
          <mxGeometry x="-0.0012" width="50" height="50" relative="1" as="geometry">
            <mxPoint x="130" y="690" as="sourcePoint" />
            <mxPoint x="210" y="510" as="targetPoint" />
            <Array as="points">
              <mxPoint x="130" y="520" />
            </Array>
            <mxPoint as="offset" />
          </mxGeometry>
        </mxCell>
        <mxCell id="N2Np4KZCcYemo4RbHDCE-56" value="FRONTS&lt;br&gt;USSD&amp;nbsp;&lt;br&gt;&amp;nbsp;MOBILE APP" style="rounded=0;whiteSpace=wrap;html=1;fillColor=#f8cecc;strokeColor=#b85450;fontStyle=1;verticalAlign=middle;fontSize=14;gradientColor=#ea6b66;" parent="1" vertex="1">
          <mxGeometry x="600" y="105" width="201" height="85" as="geometry" />
        </mxCell>
        <mxCell id="N2Np4KZCcYemo4RbHDCE-57" value="" style="outlineConnect=0;fontColor=#232F3E;gradientColor=#945DF2;gradientDirection=north;fillColor=#5A30B5;strokeColor=#ffffff;dashed=0;verticalLabelPosition=bottom;verticalAlign=top;align=center;html=1;fontSize=12;fontStyle=0;aspect=fixed;shape=mxgraph.aws4.resourceIcon;resIcon=mxgraph.aws4.api_gateway;shadow=1;sketch=0;" parent="1" vertex="1">
          <mxGeometry x="590" y="460" width="49.25" height="49.25" as="geometry" />
        </mxCell>
        <mxCell id="N2Np4KZCcYemo4RbHDCE-58" value="HTTPS" style="endArrow=classic;startArrow=classic;html=1;rounded=0;entryX=0.041;entryY=0.67;entryDx=0;entryDy=0;entryPerimeter=0;" parent="1" target="N2Np4KZCcYemo4RbHDCE-57" edge="1">
          <mxGeometry width="50" height="50" relative="1" as="geometry">
            <mxPoint x="340" y="496" as="sourcePoint" />
            <mxPoint x="390" y="446" as="targetPoint" />
          </mxGeometry>
        </mxCell>
        <mxCell id="N2Np4KZCcYemo4RbHDCE-59" value="HTTPS" style="endArrow=classic;startArrow=classic;html=1;rounded=0;" parent="1" edge="1">
          <mxGeometry x="-0.0003" width="50" height="50" relative="1" as="geometry">
            <mxPoint x="650" y="492" as="sourcePoint" />
            <mxPoint x="700" y="200" as="targetPoint" />
            <Array as="points">
              <mxPoint x="700" y="492" />
            </Array>
            <mxPoint as="offset" />
          </mxGeometry>
        </mxCell>
        <mxCell id="N2Np4KZCcYemo4RbHDCE-60" value="ACCESS GATEWAY" style="rounded=0;whiteSpace=wrap;html=1;shadow=0;strokeColor=#6c8ebf;fillColor=#dae8fc;rotation=0;fontStyle=1;verticalAlign=middle;fontSize=14;" parent="1" vertex="1">
          <mxGeometry x="550" y="513.27" width="150" height="54.73" as="geometry" />
        </mxCell>
      </root>
    </mxGraphModel>
  </diagram>
</mxfile>
